<svg width="52" height="46" viewBox="0 0 52 46" fill="none" xmlns="http://www.w3.org/2000/svg">
<g filter="url(#filter0_d_603_175)">
<rect width="52" height="42" rx="4" fill="white"/>
<rect x="0.5" y="0.5" width="51" height="41" rx="3.5" stroke="#4285F4"/>
<g clip-path="url(#clip0_603_175)">
<path fill-rule="evenodd" clip-rule="evenodd" d="M35.6 21.2273C35.6 20.5182 35.5364 19.8364 35.4182 19.1818H26V23.05H31.3818C31.15 24.3 30.4455 25.3591 29.3864 26.0682V28.5773H32.6182C34.5091 26.8364 35.6 24.2727 35.6 21.2273Z" fill="#4285F4"/>
<path fill-rule="evenodd" clip-rule="evenodd" d="M26 31C28.7 31 30.9637 30.1045 32.6182 28.5772L29.3864 26.0681C28.4909 26.6681 27.3455 27.0227 26 27.0227C23.3955 27.0227 21.1909 25.2636 20.4046 22.9H17.0637V25.4909C18.7091 28.7591 22.0909 31 26 31Z" fill="#34A853"/>
<path fill-rule="evenodd" clip-rule="evenodd" d="M20.4045 22.9C20.2045 22.3 20.0909 21.6591 20.0909 21C20.0909 20.3409 20.2045 19.7 20.4045 19.1V16.5091H17.0636C16.3864 17.8591 16 19.3864 16 21C16 22.6136 16.3864 24.1409 17.0636 25.4909L20.4045 22.9Z" fill="#FBBC05"/>
<path fill-rule="evenodd" clip-rule="evenodd" d="M26 14.9773C27.4682 14.9773 28.7864 15.4818 29.8228 16.4727L32.6909 13.6045C30.9591 11.9909 28.6955 11 26 11C22.0909 11 18.7091 13.2409 17.0637 16.5091L20.4046 19.1C21.1909 16.7364 23.3955 14.9773 26 14.9773Z" fill="#EA4335"/>
</g>
</g>
<defs>
<filter id="filter0_d_603_175" x="0" y="0" width="52" height="46" filterUnits="userSpaceOnUse" color-interpolation-filters="sRGB">
<feFlood flood-opacity="0" result="BackgroundImageFix"/>
<feColorMatrix in="SourceAlpha" type="matrix" values="0 0 0 0 0 0 0 0 0 0 0 0 0 0 0 0 0 0 127 0" result="hardAlpha"/>
<feOffset dy="4"/>
<feComposite in2="hardAlpha" operator="out"/>
<feColorMatrix type="matrix" values="0 0 0 0 0 0 0 0 0 0 0 0 0 0 0 0 0 0 1 0"/>
<feBlend mode="normal" in2="BackgroundImageFix" result="effect1_dropShadow_603_175"/>
<feBlend mode="normal" in="SourceGraphic" in2="effect1_dropShadow_603_175" result="shape"/>
</filter>
<clipPath id="clip0_603_175">
<rect width="20" height="20" fill="white" transform="translate(16 11)"/>
</clipPath>
</defs>
</svg>
