<svg width="37" height="26" viewBox="0 0 37 26" fill="none" xmlns="http://www.w3.org/2000/svg">
<path fill-rule="evenodd" clip-rule="evenodd" d="M0 4.22857C0 3.10708 0.487275 2.03153 1.35463 1.23852C2.22199 0.445509 3.39837 0 4.625 0H32.375C33.6016 0 34.778 0.445509 35.6454 1.23852C36.5127 2.03153 37 3.10708 37 4.22857V21.1429C37 22.2643 36.5127 23.3399 35.6454 24.1329C34.778 24.9259 33.6016 25.3714 32.375 25.3714H4.625C3.39837 25.3714 2.22199 24.9259 1.35463 24.1329C0.487275 23.3399 0 22.2643 0 21.1429V4.22857ZM5.78125 6.34286C5.47459 6.34286 5.1805 6.45423 4.96366 6.65249C4.74682 6.85074 4.625 7.11963 4.625 7.4V9.51429C4.625 9.79466 4.74682 10.0635 4.96366 10.2618C5.1805 10.4601 5.47459 10.5714 5.78125 10.5714H10.4062C10.7129 10.5714 11.007 10.4601 11.2238 10.2618C11.4407 10.0635 11.5625 9.79466 11.5625 9.51429V7.4C11.5625 7.11963 11.4407 6.85074 11.2238 6.65249C11.007 6.45423 10.7129 6.34286 10.4062 6.34286H5.78125ZM5.78125 12.6857C5.47459 12.6857 5.1805 12.7971 4.96366 12.9953C4.74682 13.1936 4.625 13.4625 4.625 13.7429C4.625 14.0232 4.74682 14.2921 4.96366 14.4904C5.1805 14.6886 5.47459 14.8 5.78125 14.8H17.3438C17.6504 14.8 17.9445 14.6886 18.1613 14.4904C18.3782 14.2921 18.5 14.0232 18.5 13.7429C18.5 13.4625 18.3782 13.1936 18.1613 12.9953C17.9445 12.7971 17.6504 12.6857 17.3438 12.6857H5.78125ZM5.78125 16.9143C5.47459 16.9143 5.1805 17.0257 4.96366 17.2239C4.74682 17.4222 4.625 17.6911 4.625 17.9714C4.625 18.2518 4.74682 18.5207 4.96366 18.7189C5.1805 18.9172 5.47459 19.0286 5.78125 19.0286H8.09375C8.40041 19.0286 8.6945 18.9172 8.91134 18.7189C9.12818 18.5207 9.25 18.2518 9.25 17.9714C9.25 17.6911 9.12818 17.4222 8.91134 17.2239C8.6945 17.0257 8.40041 16.9143 8.09375 16.9143H5.78125ZM12.7188 16.9143C12.4121 16.9143 12.118 17.0257 11.9012 17.2239C11.6843 17.4222 11.5625 17.6911 11.5625 17.9714C11.5625 18.2518 11.6843 18.5207 11.9012 18.7189C12.118 18.9172 12.4121 19.0286 12.7188 19.0286H15.0312C15.3379 19.0286 15.632 18.9172 15.8488 18.7189C16.0657 18.5207 16.1875 18.2518 16.1875 17.9714C16.1875 17.6911 16.0657 17.4222 15.8488 17.2239C15.632 17.0257 15.3379 16.9143 15.0312 16.9143H12.7188ZM19.6562 16.9143C19.3496 16.9143 19.0555 17.0257 18.8387 17.2239C18.6218 17.4222 18.5 17.6911 18.5 17.9714C18.5 18.2518 18.6218 18.5207 18.8387 18.7189C19.0555 18.9172 19.3496 19.0286 19.6562 19.0286H21.9688C22.2754 19.0286 22.5695 18.9172 22.7863 18.7189C23.0032 18.5207 23.125 18.2518 23.125 17.9714C23.125 17.6911 23.0032 17.4222 22.7863 17.2239C22.5695 17.0257 22.2754 16.9143 21.9688 16.9143H19.6562ZM26.5938 16.9143C26.2871 16.9143 25.993 17.0257 25.7762 17.2239C25.5593 17.4222 25.4375 17.6911 25.4375 17.9714C25.4375 18.2518 25.5593 18.5207 25.7762 18.7189C25.993 18.9172 26.2871 19.0286 26.5938 19.0286H28.9062C29.2129 19.0286 29.507 18.9172 29.7238 18.7189C29.9407 18.5207 30.0625 18.2518 30.0625 17.9714C30.0625 17.6911 29.9407 17.4222 29.7238 17.2239C29.507 17.0257 29.2129 16.9143 28.9062 16.9143H26.5938Z" fill="#F8CA0E"/>
</svg>
