<svg width="42" height="42" viewBox="0 0 42 42" fill="none" xmlns="http://www.w3.org/2000/svg">
<path d="M33.3547 22.8558L17.6047 38.6058C17.1096 39.084 16.4466 39.3486 15.7583 39.3426C15.07 39.3366 14.4116 39.0606 13.9249 38.5739C13.4382 38.0872 13.1622 37.4288 13.1562 36.7405C13.1502 36.0523 13.4148 35.3892 13.893 34.8941L27.7871 21L13.893 7.10584C13.4148 6.61076 13.1502 5.94768 13.1562 5.25942C13.1622 4.57115 13.4382 3.91277 13.9249 3.42607C14.4116 2.93937 15.07 2.66331 15.7583 2.65733C16.4466 2.65134 17.1096 2.91593 17.6047 3.39409L33.3547 19.1441C33.8468 19.6364 34.1233 20.3039 34.1233 21C34.1233 21.696 33.8468 22.3636 33.3547 22.8558Z" fill="white"/>
</svg>
