<svg width="35" height="35" viewBox="0 0 35 35" fill="none" xmlns="http://www.w3.org/2000/svg">
<path d="M18.766 7.79803C19.7112 7.79803 20.4775 7.03176 20.4775 6.08652C20.4775 5.14127 19.7112 4.375 18.766 4.375C17.8207 4.375 17.0544 5.14127 17.0544 6.08652C17.0544 7.03176 17.8207 7.79803 18.766 7.79803Z" stroke="#2D0C57" stroke-width="2.1875" stroke-linecap="round" stroke-linejoin="round"/>
<path d="M22.1889 31.7593L20.7329 27.3913C20.5649 26.8872 20.2818 26.4291 19.906 26.0534L15.3429 21.4902M15.3429 21.4902L17.0544 12.9326M15.3429 21.4902L10.2083 31.7593M17.0544 12.9326L21.7961 17.6744C22.0563 17.9345 22.3567 18.151 22.6858 18.3156L25.612 19.7787M17.0544 12.9326L12.897 15.7042C12.2637 16.1264 11.7891 16.7477 11.5484 17.4698L10.2083 21.4902" stroke="#2D0C57" stroke-width="2.1875" stroke-linecap="round" stroke-linejoin="round"/>
</svg>
