<svg width="20" height="16" viewBox="0 0 20 16" fill="none" xmlns="http://www.w3.org/2000/svg">
<path d="M2.80002 0.799805C1.47454 0.799805 0.400024 1.87432 0.400024 3.19981V4.3998H19.6V3.1998C19.6 1.87432 18.5255 0.799805 17.2 0.799805H2.80002Z" fill="#FE8C00"/>
<path fill-rule="evenodd" clip-rule="evenodd" d="M19.6 6.7998H0.400024V12.7998C0.400024 14.1253 1.47454 15.1998 2.80002 15.1998H17.2C18.5255 15.1998 19.6 14.1253 19.6 12.7998V6.7998ZM2.80002 11.5998C2.80002 10.9371 3.33728 10.3998 4.00002 10.3998H5.20002C5.86277 10.3998 6.40002 10.9371 6.40002 11.5998C6.40002 12.2625 5.86277 12.7998 5.20002 12.7998H4.00002C3.33728 12.7998 2.80002 12.2625 2.80002 11.5998ZM8.80002 10.3998C8.13728 10.3998 7.60002 10.9371 7.60002 11.5998C7.60002 12.2625 8.13728 12.7998 8.80002 12.7998H10C10.6628 12.7998 11.2 12.2625 11.2 11.5998C11.2 10.9371 10.6628 10.3998 10 10.3998H8.80002Z" fill="#FE8C00"/>
</svg>
